<?xml version="1.0" standalone="no"?>
<!DOCTYPE svg PUBLIC "-//W3C//DTD SVG 20010904//EN"
 "http://www.w3.org/TR/2001/REC-SVG-20010904/DTD/svg10.dtd">
<svg version="1.0" xmlns="http://www.w3.org/2000/svg"
 width="100.000000pt" height="100.000000pt" viewBox="0 0 100.000000 100.000000"
 preserveAspectRatio="xMidYMid meet">

<g transform="translate(0.000000,100.000000) scale(0.100000,-0.100000)"
fill="#000000" stroke="none">
<path d="M0 500 l0 -500 500 0 500 0 0 500 0 500 -500 0 -500 0 0 -500z m272
132 c121 -166 223 -302 228 -302 5 0 107 136 228 302 122 167 228 312 236 323
14 18 15 -26 16 -457 l0 -478 -80 0 -80 0 0 225 c0 124 -3 225 -7 224 -5 0
-75 -97 -156 -215 -82 -117 -152 -214 -157 -214 -5 0 -75 97 -157 214 -81 118
-151 215 -155 215 -5 1 -8 -100 -8 -224 l0 -225 -80 0 -80 0 0 478 c1 431 2
475 16 457 8 -11 114 -156 236 -323z m251 311 c-13 -2 -33 -2 -45 0 -13 2 -3
4 22 4 25 0 35 -2 23 -4z m0 -42 l-22 -19 22 -7 c19 -7 16 -9 -17 -12 -48 -5
-57 3 -26 27 l24 18 -25 5 c-14 2 -5 5 21 5 l45 1 -22 -18z m12 -61 c4 -6 -10
-10 -35 -10 -25 0 -39 4 -35 10 3 6 19 10 35 10 16 0 32 -4 35 -10z m5 -31 c0
-5 -7 -9 -15 -9 -21 0 -19 -28 3 -33 9 -3 -2 -5 -25 -6 -44 -1 -51 7 -37 42 6
16 74 22 74 6z m-11 -80 c-12 -7 -12 -12 -1 -30 13 -21 12 -21 -15 -15 -15 4
-34 13 -42 21 -12 12 -9 16 20 28 35 14 62 12 38 -4z m5 -66 c4 -4 -3 -15 -16
-25 l-23 -18 23 0 c13 0 20 -4 17 -10 -8 -13 -62 -13 -70 -1 -3 5 5 17 17 25
18 13 19 16 5 16 -9 0 -17 5 -17 10 0 11 53 14 64 3z m-53 -95 l2 -23 4 23 c2
12 9 22 14 22 5 0 10 -10 10 -22 l2 -23 4 23 c6 30 23 28 23 -3 0 -22 -4 -25
-40 -25 -36 0 -40 3 -40 25 0 31 19 33 21 3z m46 -55 c-18 -5 -18 -5 0 -18 17
-13 17 -14 -1 -21 -19 -7 -19 -8 0 -15 13 -5 6 -8 -23 -8 -45 -1 -59 17 -21
27 l22 5 -22 8 c-36 14 -25 29 21 28 23 -1 34 -3 24 -6z"/>
<path d="M481 784 c0 -11 3 -14 6 -6 3 7 2 16 -1 19 -3 4 -6 -2 -5 -13z"/>
</g>
</svg>
