<?xml version="1.0" standalone="no"?>
<!DOCTYPE svg PUBLIC "-//W3C//DTD SVG 20010904//EN"
 "http://www.w3.org/TR/2001/REC-SVG-20010904/DTD/svg10.dtd">
<svg version="1.0" xmlns="http://www.w3.org/2000/svg"
 width="100.000000pt" height="100.000000pt" viewBox="0 0 100.000000 100.000000"
 preserveAspectRatio="xMidYMid meet">

<g transform="translate(0.000000,100.000000) scale(0.100000,-0.100000)"
fill="#000000" stroke="none">
<path d="M433 894 c-26 -20 -39 -24 -67 -19 -74 14 -186 -74 -186 -147 0 -21
-6 -31 -24 -38 -56 -21 -78 -82 -55 -149 9 -25 8 -40 -6 -73 -31 -79 1 -170
75 -208 34 -17 40 -25 40 -51 0 -22 10 -41 35 -66 34 -34 38 -35 85 -29 32 4
50 3 50 -4 0 -25 65 -50 132 -50 60 0 71 3 101 29 29 26 39 29 75 24 38 -5 45
-2 77 30 25 25 35 44 35 66 0 26 6 34 39 50 28 15 46 34 65 73 30 60 32 92 11
146 -12 29 -13 45 -5 66 23 61 2 125 -50 146 -25 10 -30 18 -30 45 0 46 -38
96 -94 124 -41 21 -54 23 -86 14 -34 -9 -40 -7 -69 19 -42 38 -102 39 -148 2z
m98 -34 c43 -23 8 -58 -45 -44 -32 8 -33 18 -4 38 27 19 24 19 49 6z m-156
-50 c10 -16 -24 -70 -58 -90 -70 -43 -102 -11 -50 50 36 43 93 64 108 40z
m328 1 c51 -20 87 -87 57 -106 -18 -11 -79 16 -105 46 -37 44 -33 59 17 68 4
0 18 -3 31 -8z m-175 -56 c47 0 54 -3 71 -30 22 -38 55 -60 109 -75 38 -10 42
-14 42 -43 0 -18 9 -47 21 -66 l20 -33 -20 -22 c-31 -33 -53 -94 -49 -138 2
-36 -1 -41 -27 -53 -17 -7 -43 -26 -58 -43 -28 -29 -30 -30 -63 -16 -40 17
-90 18 -133 3 -30 -11 -35 -9 -64 19 -18 17 -44 35 -58 41 -23 8 -27 16 -31
66 -4 41 -13 67 -36 100 l-31 44 20 37 c10 21 19 50 19 65 0 23 5 28 34 33 46
9 110 57 126 95 10 26 16 30 34 24 11 -5 45 -8 74 -8z m-328 -135 c0 -28 -22
-71 -34 -67 -19 6 -19 60 0 74 25 18 34 16 34 -7z m653 -1 c5 -9 7 -29 3 -45
l-8 -29 -19 24 c-24 30 -26 74 -3 69 9 -2 21 -10 27 -19z m13 -218 c-9 -61
-57 -111 -77 -80 -19 30 -9 78 23 115 30 34 33 35 46 17 8 -11 11 -31 8 -52z
m-659 20 c43 -64 21 -139 -29 -95 -28 26 -40 63 -33 102 8 42 31 40 62 -7z
m102 -186 c48 -24 52 -65 7 -65 -27 0 -43 16 -46 45 -4 40 -2 42 39 20z m429
-25 c-12 -37 -22 -44 -54 -36 -21 6 -23 9 -14 26 11 21 60 51 72 44 4 -3 2
-18 -4 -34z m-168 -38 l22 -17 -21 -19 c-35 -32 -141 -19 -141 18 0 34 103 48
140 18z"/>
</g>
</svg>
